G04 #@! TF.FileFunction,Legend,Bot*
%FSLAX46Y46*%
G04 Gerber Fmt 4.6, Leading zero omitted, Abs format (unit mm)*
G04 Created by KiCad (PCBNEW 4.0.2-1.fc23-product) date Tue 26 Jul 2016 12:00:10 AM EEST*
%MOMM*%
G01*
G04 APERTURE LIST*
%ADD10C,0.100000*%
%ADD11C,0.150000*%
G04 APERTURE END LIST*
D10*
D11*
X59333000Y-142341600D02*
X59333000Y-90322400D01*
X59333000Y-142334000D02*
X131333000Y-142334000D01*
X131333000Y-142334000D02*
X131333000Y-90334000D01*
X131333000Y-90334000D02*
X59333000Y-90334000D01*
X124956000Y-135334000D02*
X97333000Y-135334000D01*
X97359000Y-129334000D02*
X97359000Y-135334000D01*
X97333000Y-129334000D02*
X124960000Y-129334000D01*
X124960000Y-129334000D02*
X124960000Y-135334000D01*
X187442000Y-51703000D02*
X186242000Y-51703000D01*
X186242000Y-53453000D02*
X187442000Y-53453000D01*
X126535381Y-131595905D02*
X125535381Y-131595905D01*
X125535381Y-131976858D01*
X125583000Y-132072096D01*
X125630619Y-132119715D01*
X125725857Y-132167334D01*
X125868714Y-132167334D01*
X125963952Y-132119715D01*
X126011571Y-132072096D01*
X126059190Y-131976858D01*
X126059190Y-131595905D01*
X126535381Y-133119715D02*
X126535381Y-132548286D01*
X126535381Y-132834000D02*
X125535381Y-132834000D01*
X125678238Y-132738762D01*
X125773476Y-132643524D01*
X125821095Y-132548286D01*
X121714709Y-137555243D02*
X121762328Y-137602862D01*
X121905185Y-137650481D01*
X122000423Y-137650481D01*
X122143281Y-137602862D01*
X122238519Y-137507624D01*
X122286138Y-137412386D01*
X122333757Y-137221910D01*
X122333757Y-137079052D01*
X122286138Y-136888576D01*
X122238519Y-136793338D01*
X122143281Y-136698100D01*
X122000423Y-136650481D01*
X121905185Y-136650481D01*
X121762328Y-136698100D01*
X121714709Y-136745719D01*
X121095662Y-136650481D02*
X120905185Y-136650481D01*
X120809947Y-136698100D01*
X120714709Y-136793338D01*
X120667090Y-136983814D01*
X120667090Y-137317148D01*
X120714709Y-137507624D01*
X120809947Y-137602862D01*
X120905185Y-137650481D01*
X121095662Y-137650481D01*
X121190900Y-137602862D01*
X121286138Y-137507624D01*
X121333757Y-137317148D01*
X121333757Y-136983814D01*
X121286138Y-136793338D01*
X121190900Y-136698100D01*
X121095662Y-136650481D01*
X120238519Y-137650481D02*
X120238519Y-136650481D01*
X119667090Y-137650481D01*
X119667090Y-136650481D01*
X119190900Y-137650481D02*
X119190900Y-136650481D01*
X118619471Y-137650481D01*
X118619471Y-136650481D01*
X118381376Y-137745719D02*
X117619471Y-137745719D01*
X117190900Y-136650481D02*
X117095661Y-136650481D01*
X117000423Y-136698100D01*
X116952804Y-136745719D01*
X116905185Y-136840957D01*
X116857566Y-137031433D01*
X116857566Y-137269529D01*
X116905185Y-137460005D01*
X116952804Y-137555243D01*
X117000423Y-137602862D01*
X117095661Y-137650481D01*
X117190900Y-137650481D01*
X117286138Y-137602862D01*
X117333757Y-137555243D01*
X117381376Y-137460005D01*
X117428995Y-137269529D01*
X117428995Y-137031433D01*
X117381376Y-136840957D01*
X117333757Y-136745719D01*
X117286138Y-136698100D01*
X117190900Y-136650481D01*
X116476614Y-136745719D02*
X116428995Y-136698100D01*
X116333757Y-136650481D01*
X116095661Y-136650481D01*
X116000423Y-136698100D01*
X115952804Y-136745719D01*
X115905185Y-136840957D01*
X115905185Y-136936195D01*
X115952804Y-137079052D01*
X116524233Y-137650481D01*
X115905185Y-137650481D01*
X115571852Y-136650481D02*
X114905185Y-137650481D01*
X114905185Y-136650481D02*
X115571852Y-137650481D01*
X114048042Y-136650481D02*
X114524233Y-136650481D01*
X114571852Y-137126671D01*
X114524233Y-137079052D01*
X114428995Y-137031433D01*
X114190899Y-137031433D01*
X114095661Y-137079052D01*
X114048042Y-137126671D01*
X114000423Y-137221910D01*
X114000423Y-137460005D01*
X114048042Y-137555243D01*
X114095661Y-137602862D01*
X114190899Y-137650481D01*
X114428995Y-137650481D01*
X114524233Y-137602862D01*
X114571852Y-137555243D01*
X113381376Y-136650481D02*
X113286137Y-136650481D01*
X113190899Y-136698100D01*
X113143280Y-136745719D01*
X113095661Y-136840957D01*
X113048042Y-137031433D01*
X113048042Y-137269529D01*
X113095661Y-137460005D01*
X113143280Y-137555243D01*
X113190899Y-137602862D01*
X113286137Y-137650481D01*
X113381376Y-137650481D01*
X113476614Y-137602862D01*
X113524233Y-137555243D01*
X113571852Y-137460005D01*
X113619471Y-137269529D01*
X113619471Y-137031433D01*
X113571852Y-136840957D01*
X113524233Y-136745719D01*
X113476614Y-136698100D01*
X113381376Y-136650481D01*
X76997629Y-90790781D02*
X76426200Y-90790781D01*
X76711915Y-91790781D02*
X76711915Y-90790781D01*
X76092867Y-91790781D02*
X76092867Y-90790781D01*
X76092867Y-91266971D02*
X75521438Y-91266971D01*
X75521438Y-91790781D02*
X75521438Y-90790781D01*
X75045248Y-90790781D02*
X75045248Y-91600305D01*
X74997629Y-91695543D01*
X74950010Y-91743162D01*
X74854772Y-91790781D01*
X74664295Y-91790781D01*
X74569057Y-91743162D01*
X74521438Y-91695543D01*
X74473819Y-91600305D01*
X74473819Y-90790781D01*
X73426200Y-91790781D02*
X73759534Y-91314590D01*
X73997629Y-91790781D02*
X73997629Y-90790781D01*
X73616676Y-90790781D01*
X73521438Y-90838400D01*
X73473819Y-90886019D01*
X73426200Y-90981257D01*
X73426200Y-91124114D01*
X73473819Y-91219352D01*
X73521438Y-91266971D01*
X73616676Y-91314590D01*
X73997629Y-91314590D01*
X73045248Y-91505067D02*
X72569057Y-91505067D01*
X73140486Y-91790781D02*
X72807153Y-90790781D01*
X72473819Y-91790781D01*
X71950010Y-91314590D02*
X71950010Y-91790781D01*
X72283343Y-90790781D02*
X71950010Y-91314590D01*
X71616676Y-90790781D01*
X71330962Y-91505067D02*
X70854771Y-91505067D01*
X71426200Y-91790781D02*
X71092867Y-90790781D01*
X70759533Y-91790781D01*
X69711914Y-91743162D02*
X69569057Y-91790781D01*
X69330961Y-91790781D01*
X69235723Y-91743162D01*
X69188104Y-91695543D01*
X69140485Y-91600305D01*
X69140485Y-91505067D01*
X69188104Y-91409829D01*
X69235723Y-91362210D01*
X69330961Y-91314590D01*
X69521438Y-91266971D01*
X69616676Y-91219352D01*
X69664295Y-91171733D01*
X69711914Y-91076495D01*
X69711914Y-90981257D01*
X69664295Y-90886019D01*
X69616676Y-90838400D01*
X69521438Y-90790781D01*
X69283342Y-90790781D01*
X69140485Y-90838400D01*
X68711914Y-91790781D02*
X68711914Y-90790781D01*
X68378580Y-91505067D01*
X68045247Y-90790781D01*
X68045247Y-91790781D01*
X67569057Y-91409829D02*
X66807152Y-91409829D01*
X66378581Y-90886019D02*
X66330962Y-90838400D01*
X66235724Y-90790781D01*
X65997628Y-90790781D01*
X65902390Y-90838400D01*
X65854771Y-90886019D01*
X65807152Y-90981257D01*
X65807152Y-91076495D01*
X65854771Y-91219352D01*
X66426200Y-91790781D01*
X65807152Y-91790781D01*
X64902390Y-90790781D02*
X65378581Y-90790781D01*
X65426200Y-91266971D01*
X65378581Y-91219352D01*
X65283343Y-91171733D01*
X65045247Y-91171733D01*
X64950009Y-91219352D01*
X64902390Y-91266971D01*
X64854771Y-91362210D01*
X64854771Y-91600305D01*
X64902390Y-91695543D01*
X64950009Y-91743162D01*
X65045247Y-91790781D01*
X65283343Y-91790781D01*
X65378581Y-91743162D01*
X65426200Y-91695543D01*
X64235724Y-90790781D02*
X64140485Y-90790781D01*
X64045247Y-90838400D01*
X63997628Y-90886019D01*
X63950009Y-90981257D01*
X63902390Y-91171733D01*
X63902390Y-91409829D01*
X63950009Y-91600305D01*
X63997628Y-91695543D01*
X64045247Y-91743162D01*
X64140485Y-91790781D01*
X64235724Y-91790781D01*
X64330962Y-91743162D01*
X64378581Y-91695543D01*
X64426200Y-91600305D01*
X64473819Y-91409829D01*
X64473819Y-91171733D01*
X64426200Y-90981257D01*
X64378581Y-90886019D01*
X64330962Y-90838400D01*
X64235724Y-90790781D01*
X63283343Y-90790781D02*
X63188104Y-90790781D01*
X63092866Y-90838400D01*
X63045247Y-90886019D01*
X62997628Y-90981257D01*
X62950009Y-91171733D01*
X62950009Y-91409829D01*
X62997628Y-91600305D01*
X63045247Y-91695543D01*
X63092866Y-91743162D01*
X63188104Y-91790781D01*
X63283343Y-91790781D01*
X63378581Y-91743162D01*
X63426200Y-91695543D01*
X63473819Y-91600305D01*
X63521438Y-91409829D01*
X63521438Y-91171733D01*
X63473819Y-90981257D01*
X63426200Y-90886019D01*
X63378581Y-90838400D01*
X63283343Y-90790781D01*
X99020214Y-130180619D02*
X98972595Y-130133000D01*
X98877357Y-130085381D01*
X98639261Y-130085381D01*
X98544023Y-130133000D01*
X98496404Y-130180619D01*
X98448785Y-130275857D01*
X98448785Y-130371095D01*
X98496404Y-130513952D01*
X99067833Y-131085381D01*
X98448785Y-131085381D01*
X98397285Y-134486381D02*
X98968714Y-134486381D01*
X98683000Y-134486381D02*
X98683000Y-133486381D01*
X98778238Y-133629238D01*
X98873476Y-133724476D01*
X98968714Y-133772095D01*
X187484857Y-55130381D02*
X187818191Y-54654190D01*
X188056286Y-55130381D02*
X188056286Y-54130381D01*
X187675333Y-54130381D01*
X187580095Y-54178000D01*
X187532476Y-54225619D01*
X187484857Y-54320857D01*
X187484857Y-54463714D01*
X187532476Y-54558952D01*
X187580095Y-54606571D01*
X187675333Y-54654190D01*
X188056286Y-54654190D01*
X187103905Y-54225619D02*
X187056286Y-54178000D01*
X186961048Y-54130381D01*
X186722952Y-54130381D01*
X186627714Y-54178000D01*
X186580095Y-54225619D01*
X186532476Y-54320857D01*
X186532476Y-54416095D01*
X186580095Y-54558952D01*
X187151524Y-55130381D01*
X186532476Y-55130381D01*
X186056286Y-55130381D02*
X185865810Y-55130381D01*
X185770571Y-55082762D01*
X185722952Y-55035143D01*
X185627714Y-54892286D01*
X185580095Y-54701810D01*
X185580095Y-54320857D01*
X185627714Y-54225619D01*
X185675333Y-54178000D01*
X185770571Y-54130381D01*
X185961048Y-54130381D01*
X186056286Y-54178000D01*
X186103905Y-54225619D01*
X186151524Y-54320857D01*
X186151524Y-54558952D01*
X186103905Y-54654190D01*
X186056286Y-54701810D01*
X185961048Y-54749429D01*
X185770571Y-54749429D01*
X185675333Y-54701810D01*
X185627714Y-54654190D01*
X185580095Y-54558952D01*
M02*
