M48
METRIC,TZ
T1C0.700
T2C0.800
T3C0.800
T4C0.889
T5C1.001
T6C1.016
T7C1.100
T8C1.270
T9C1.524
T10C1.570
T11C3.048
T12C3.300
%
G90
G05
T1
X140462Y-58547
X140462Y-81407
X140462Y-85217
X140462Y-108077
X140462Y-111887
X140462Y-134747
X189992Y-58547
X189992Y-81407
X189992Y-85217
X189992Y-108077
X189992Y-111887
X189992Y-134747
T2
X64342Y-39243
X65137Y-105156
X69342Y-39243
X81244Y-139614
X81691Y-55957
X84460Y-133380
X87796Y-98727
X88625Y-93782
X89100Y-44034
X91059Y-138646
X94921Y-141460
X97810Y-127544
X98692Y-48250
X101092Y-106375
X101216Y-64791
X105583Y-126751
X108929Y-50969
X110988Y-139375
X111313Y-120533
X115100Y-124092
X116286Y-120617
X116733Y-64988
X116759Y-139070
X117683Y-113772
X118577Y-137660
X121008Y-136990
X127198Y-89775
X128949Y-72475
X129235Y-122326
X129997Y-126289
X130004Y-76746
X130053Y-80302
X134704Y-78381
X136042Y-84023
X136147Y-120545
X136682Y-140063
X139781Y-138394
X140136Y-96012
X140136Y-97589
X140289Y-109272
X140491Y-94552
X140546Y-126453
X140577Y-106924
X144577Y-80823
X144597Y-132832
X144635Y-129583
X144635Y-131125
X145136Y-97282
X145186Y-107594
X145339Y-79451
X147371Y-127559
X147726Y-125120
X148133Y-97180
X150301Y-121412
X151485Y-123952
X153875Y-122682
X160528Y-56854
X179883Y-47549
X180888Y-82042
X183499Y-58172
X184658Y-65634
X186104Y-47207
X186838Y-44132
X187915Y-50503
X188530Y-49129
X190252Y-96547
X190308Y-95113
X190314Y-92202
X190751Y-51956
X190754Y-54966
X193364Y-41903
X193727Y-82157
X194197Y-80518
X194532Y-64360
X194827Y-135540
X195299Y-93472
X195783Y-68021
X195934Y-108441
X196444Y-57201
X197866Y-60655
X198198Y-69088
X201904Y-37518
X201968Y-56376
X202006Y-49022
X202049Y-58532
X203004Y-81155
X203263Y-43566
X204046Y-110377
X204151Y-39290
X204180Y-49462
X205436Y-54102
X205953Y-48100
X206103Y-57912
X206819Y-55372
X207012Y-50292
X207165Y-64259
X207642Y-43244
X207728Y-61772
X207732Y-51727
X207735Y-56642
X207745Y-53864
X208422Y-41990
X211570Y-75611
X211714Y-49022
X212156Y-57378
X212989Y-54933
X213741Y-69272
T3
X203332Y-69088
X207132Y-69088
T4
X178435Y-44704
X180721Y-44704
X181737Y-38100
X182753Y-39878
X183769Y-38100
X184785Y-39878
X185801Y-38100
X186817Y-39878
X187833Y-38100
X188849Y-39878
X189865Y-44704
X192151Y-44704
T5
X60198Y-46228
X60198Y-48768
X76835Y-36703
X79375Y-36703
X86233Y-36703
X88773Y-36703
X95631Y-36767
X98171Y-36767
T6
X99441Y-52324
X99441Y-54864
X99441Y-57404
X99441Y-59944
X111125Y-46800
X112522Y-44260
X113919Y-46800
X115316Y-44260
X116586Y-46800
X117983Y-44260
X119380Y-46800
X120777Y-44260
X121158Y-51689
X121158Y-54229
X122174Y-46800
X150876Y-46482
X152273Y-43942
X153670Y-46482
X155067Y-43942
X156337Y-46482
X157734Y-43942
X159131Y-46482
X160528Y-43942
X161925Y-46482
X199009Y-126238
X199009Y-128778
X199009Y-131318
X201549Y-93472
X201549Y-96012
X201549Y-98552
X205486Y-98552
X208026Y-98552
X213995Y-61722
T7
X60043Y-65705
X60043Y-67605
X60043Y-69406
X60043Y-71206
X60043Y-73106
X60043Y-78722
X60043Y-80622
X60043Y-82423
X60043Y-84224
X60043Y-86124
T8
X78740Y-105562
X78740Y-120599
T9
X75565Y-102387
X75565Y-108737
X75565Y-117424
X75565Y-123774
X81915Y-102387
X81915Y-108737
X81915Y-117424
X81915Y-123774
T10
X177165Y-38989
X193421Y-38989
T11
X104013Y-44260
X129413Y-44260
X143764Y-43942
X169164Y-43942
X183642Y-140589
X199009Y-136017
T12
X178943Y-35560
X191643Y-35560
T5
X64907Y-56786G85X64907Y-58784
G05
X66907Y-62484G85X68906Y-62484
G05
X70907Y-56786G85X70907Y-58784
G05
T0
M30
