G04 #@! TF.FileFunction,Other,Fab,Bot*
%FSLAX46Y46*%
G04 Gerber Fmt 4.6, Leading zero omitted, Abs format (unit mm)*
G04 Created by KiCad (PCBNEW 4.0.2-1.fc23-product) date Thu 28 Jul 2016 11:49:27 AM EEST*
%MOMM*%
G01*
G04 APERTURE LIST*
%ADD10C,0.100000*%
%ADD11C,0.150000*%
G04 APERTURE END LIST*
D10*
D11*
X189270571Y-50263714D02*
X189270571Y-50930381D01*
X189508667Y-49882762D02*
X189746762Y-50597048D01*
X189127714Y-50597048D01*
X188699143Y-50930381D02*
X188508667Y-50930381D01*
X188413428Y-50882762D01*
X188365809Y-50835143D01*
X188270571Y-50692286D01*
X188222952Y-50501810D01*
X188222952Y-50120857D01*
X188270571Y-50025619D01*
X188318190Y-49978000D01*
X188413428Y-49930381D01*
X188603905Y-49930381D01*
X188699143Y-49978000D01*
X188746762Y-50025619D01*
X188794381Y-50120857D01*
X188794381Y-50358952D01*
X188746762Y-50454190D01*
X188699143Y-50501810D01*
X188603905Y-50549429D01*
X188413428Y-50549429D01*
X188318190Y-50501810D01*
X188270571Y-50454190D01*
X188222952Y-50358952D01*
X187794381Y-50835143D02*
X187746762Y-50882762D01*
X187794381Y-50930381D01*
X187842000Y-50882762D01*
X187794381Y-50835143D01*
X187794381Y-50930381D01*
X187270572Y-50930381D02*
X187080096Y-50930381D01*
X186984857Y-50882762D01*
X186937238Y-50835143D01*
X186842000Y-50692286D01*
X186794381Y-50501810D01*
X186794381Y-50120857D01*
X186842000Y-50025619D01*
X186889619Y-49978000D01*
X186984857Y-49930381D01*
X187175334Y-49930381D01*
X187270572Y-49978000D01*
X187318191Y-50025619D01*
X187365810Y-50120857D01*
X187365810Y-50358952D01*
X187318191Y-50454190D01*
X187270572Y-50501810D01*
X187175334Y-50549429D01*
X186984857Y-50549429D01*
X186889619Y-50501810D01*
X186842000Y-50454190D01*
X186794381Y-50358952D01*
X185651524Y-50930381D02*
X184889619Y-49930381D01*
X185508667Y-49930381D02*
X185413429Y-49978000D01*
X185365810Y-50073238D01*
X185413429Y-50168476D01*
X185508667Y-50216095D01*
X185603905Y-50168476D01*
X185651524Y-50073238D01*
X185603905Y-49978000D01*
X185508667Y-49930381D01*
X184937238Y-50882762D02*
X184889619Y-50787524D01*
X184937238Y-50692286D01*
X185032476Y-50644667D01*
X185127714Y-50692286D01*
X185175333Y-50787524D01*
X185127714Y-50882762D01*
X185032476Y-50930381D01*
X184937238Y-50882762D01*
X183937238Y-50930381D02*
X184508667Y-50930381D01*
X184222953Y-50930381D02*
X184222953Y-49930381D01*
X184318191Y-50073238D01*
X184413429Y-50168476D01*
X184508667Y-50216095D01*
M02*
